<?xml version="1.0"?>
<svg version="1.1" xmlns="http://www.w3.org/2000/svg" width="164px" height="83px" style=""><path fill="#08cf79" d="M40.155,61.3l0-2.805l2.475-0.99l0-15.51l-2.475-0.99l0-2.805l8.514-0.165l4.95,10.989l5.181-10.824l7.92-0.165l0,2.97l-2.376,0.99l0,15.51l2.475,0.99l0,2.805l-9.834,0l0-2.805l2.574-0.99l0-12.408l-0.891,2.178l-3.729,7.755l-3.564,0.165l-3.795-7.821l-0.561-1.716l0,11.847l2.541,0.99l0,2.805l-9.405,0z M71.75283,61.3l0-2.805l2.475-0.99l0-15.51l-2.475-0.99l0-2.805l7.59-0.165l9.24,0l0,6.27l-3.069,0l-0.825-2.31l-5.346,0l0,5.775l6.831,0l0,3.63l-6.831,0l0,6.105l3.036,0.99l0,2.805l-10.626,0z M100.44666,38.035l3.465,0c4.29,0,7.26,1.815,7.26,5.709c0,2.871-1.353,4.62-3.96,5.445c3.102,0.891,4.719,2.739,4.719,5.28c0,4.851-3.234,6.831-8.58,6.831l-10.494,0l0-2.805l2.475-0.99l0-15.51l-2.475-0.99l0-2.805z M100.44666,47.539l1.914,0c2.409,0,3.696-1.023,3.696-3.069c0-1.716-1.221-2.475-2.805-2.475l-2.805,0l0,5.544z M100.44666,57.34l2.739,0c2.31,0,3.531-1.056,3.531-2.871c0-2.409-1.386-3.465-4.356-3.465l-1.914,0l0,6.336z"/><path fill="#" d=""/></svg>
