<svg width="195" height="71" viewBox="0 0 195 71" fill="none" xmlns="http://www.w3.org/2000/svg">
<g filter="url(#filter0_d_1_3)">
<g clip-path="url(#clip0_1_3)">
<path d="M9.11884 55.6322C9.11884 55.6322 19.9077 50.9455 16.1176 47.6955C12.3275 44.4455 9.11884 55.6322 9.11884 55.6322Z" fill="#E6E6E6"/>
<path d="M9.30661 56.7258C9.30661 56.7258 14.2656 41.3509 6.96333 42.0861C-0.338901 42.8214 9.30661 56.7258 9.30661 56.7258Z" fill="#E6E6E6"/>
<path d="M12.9222 55.3622L12.7141 57.9341L12.7108 57.9786C12.711 58.3802 12.6895 58.7816 12.6464 59.1811C12.3639 61.8045 11.1498 63 9.73086 63C8.31192 63 7.15068 61.8045 6.86821 59.1811C6.8251 58.7816 6.80359 58.3802 6.80379 57.9786L6.80213 57.9427L6.80131 57.9341L6.59235 55.3622H12.9222Z" fill="#E6E6E6"/>
<path d="M6.80131 57.9341L6.80214 57.9427L6.80379 57.9786C6.80359 58.3802 6.8251 58.7816 6.86822 59.1811H12.6464C12.6895 58.7816 12.711 58.3802 12.7108 57.9786L12.7141 57.9341H6.80131Z" fill="white"/>
<path d="M70.0836 57.8704C70.0836 57.8704 74.0953 56.1277 72.686 54.9192C71.2767 53.7108 70.0836 57.8704 70.0836 57.8704Z" fill="#E6E6E6"/>
<path d="M72.7403 57.6858L72.5955 59.4753L72.5932 59.5062C72.5933 59.7857 72.5784 60.0649 72.5484 60.3429C72.3518 62.1682 71.5071 63 70.5198 63C69.5326 63 68.7246 62.1682 68.5281 60.3429C68.4981 60.0649 68.4831 59.7857 68.4832 59.5062L68.4821 59.4813L68.4815 59.4753L68.3361 57.6858L72.7403 57.6858Z" fill="#E6E6E6"/>
<path d="M27.9495 31.7686C27.799 31.6705 27.6807 31.5346 27.6079 31.3762C27.5351 31.2179 27.5109 31.0434 27.5378 30.8727C27.5648 30.702 27.6419 30.5418 27.7604 30.4104C27.879 30.2789 28.0342 30.1814 28.2084 30.129L30.4545 29.453L31.6887 30.4622L28.9642 31.8248C28.8058 31.904 28.6274 31.9407 28.4485 31.9308C28.2696 31.9209 28.097 31.8648 27.9495 31.7686Z" fill="#FFB9B9"/>
<path d="M31.7266 31.1212L30.2459 29.5011L35.7596 23.8067L38.2982 18.2528C38.4655 17.8868 38.7633 17.5877 39.1399 17.4073C39.5165 17.2269 39.9481 17.1766 40.3599 17.2652C40.6292 17.3231 40.8809 17.4385 41.0956 17.6025C41.3103 17.7665 41.4823 17.9747 41.5985 18.2112C41.7146 18.4477 41.7717 18.7061 41.7655 18.9667C41.7593 19.2273 41.6899 19.4831 41.5627 19.7144L38.2493 25.7369L31.7266 31.1212Z" fill="#E6E6E6"/>
<path d="M28.1892 52.5829L28.4729 52.1672H28.997V51.9859H28.3682L28.0276 52.4846L28.1892 52.5829Z" fill="#3F3D56"/>
<path d="M29.3651 52.1673H30.4696V51.9859H29.3651V52.1673ZM30.8378 52.1673H31.9423V51.9859H30.8378V52.1673ZM32.3104 52.1673H33.4149V51.9859H32.3104L32.3104 52.1673ZM33.7831 52.1673H34.8876V51.9859H33.7831V52.1673ZM35.2558 52.1673H36.3602V51.9859H35.2558V52.1673ZM36.7285 52.1673L37.7517 52.1665L37.8448 52.1548L37.8194 51.9751L37.7327 51.9859H36.7285V52.1673ZM38.2097 52.109L39.3046 51.9718L39.2793 51.7921L38.1844 51.9293L38.2097 52.109ZM39.6696 51.926L40.7644 51.7887L40.7391 51.609L39.6442 51.7463L39.6696 51.926ZM41.1294 51.7429L42.2242 51.6057L42.1989 51.426L41.104 51.5632L41.1294 51.7429ZM42.5892 51.56L43.6841 51.4227L43.6588 51.243L42.5639 51.3803L42.5892 51.56Z" fill="#3F3D56"/>
<path d="M44.5282 51.7617L44.7202 51.7566L44.7007 51.1122L44.0237 51.1972L44.049 51.3769L44.5148 51.3186L44.5282 51.7617Z" fill="#3F3D56"/>
<path d="M44.6751 56.6153L44.8672 56.6102L44.8304 55.3968L44.6384 55.4019L44.6751 56.6153ZM44.6261 54.9974L44.8182 54.9923L44.7815 53.7789L44.5894 53.784L44.6261 54.9974ZM44.5772 53.3795L44.7692 53.3744L44.7325 52.161L44.5404 52.1661L44.5772 53.3795Z" fill="#3F3D56"/>
<path d="M44.8989 57.6591L44.8794 57.0147L44.6874 57.0198L44.7008 57.4628L44.2327 57.4284L44.2177 57.6092L44.8989 57.6591Z" fill="#3F3D56"/>
<path d="M43.8501 57.5823L43.865 57.4015L42.762 57.3206L42.7471 57.5014L43.8501 57.5823ZM42.3794 57.4745L42.3943 57.2937L41.2913 57.2128L41.2764 57.3936L42.3794 57.4745ZM40.9087 57.3667L40.9236 57.1859L39.8206 57.105L39.8058 57.2857L40.9087 57.3667ZM39.4381 57.2588L39.4529 57.0781L38.3499 56.9971L38.3351 57.1779L39.4381 57.2588ZM37.9675 57.151L37.9823 56.9702L36.8792 56.8893L36.8644 57.0701L37.9675 57.151ZM36.4967 57.0432L36.5115 56.8624L35.4086 56.7815L35.3937 56.9623L36.4967 57.0432ZM35.0261 56.9354L35.0409 56.7546L33.9378 56.6737L33.923 56.8544L35.0261 56.9354ZM33.5553 56.8275L33.5702 56.6468L32.4672 56.5659L32.4524 56.7466L33.5553 56.8275ZM32.0847 56.7197L32.0995 56.5389L30.9965 56.458L30.9816 56.6388L32.0847 56.7197ZM30.614 56.6119L30.6288 56.4311L29.5258 56.3502L29.511 56.531L30.614 56.6119ZM29.1433 56.5041L29.1582 56.3233L28.0551 56.2424L28.0403 56.4231L29.1433 56.5041ZM27.6726 56.3962L27.6874 56.2155L26.5844 56.1346L26.5696 56.3153L27.6726 56.3962Z" fill="#3F3D56"/>
<path d="M26.2019 56.2884L26.2168 56.1077L25.8026 56.0773L26.0277 55.7479L25.8661 55.6496L25.4667 56.2345L26.2019 56.2884Z" fill="#3F3D56"/>
<path d="M26.2678 55.3961L26.9883 54.3412L26.8268 54.2429L26.1063 55.2979L26.2678 55.3961ZM27.2285 53.9896L27.949 52.9346L27.7874 52.8363L27.0669 53.8913L27.2285 53.9896Z" fill="#3F3D56"/>
<path d="M29.8136 60.1898C26.2058 60.1898 23.2811 57.43 23.2811 54.0256C23.2811 50.6212 26.2058 47.8613 29.8136 47.8613C33.4214 47.8613 36.3461 50.6212 36.3461 54.0256C36.3461 57.43 33.4214 60.1898 29.8136 60.1898Z" fill="#2CB1BC"/>
<path d="M24.4338 61.187L33.9924 45.1871L36.1059 47.1814L26.6914 61.1417L24.4338 61.187Z" fill="#3F3D56"/>
<path d="M53.3978 60.779L31.927 40.2467L30.1498 43.5554L50.5158 61.6856L53.3978 60.779Z" fill="#3F3D56"/>
<path d="M44.6558 58.6034C42.2683 58.6034 40.3328 56.7771 40.3328 54.5242C40.3328 52.2712 42.2683 50.4449 44.6558 50.4449C47.0433 50.4449 48.9788 52.2712 48.9788 54.5242C48.9788 56.7771 47.0433 58.6034 44.6558 58.6034Z" fill="#3F3D56"/>
<path d="M50.4198 55.7026C50.4452 55.7026 50.4697 55.7122 50.4877 55.7292C50.5057 55.7462 50.5158 55.7692 50.5158 55.7933V56.5185C50.5158 56.5425 50.5057 56.5656 50.4877 56.5826C50.4697 56.5995 50.4452 56.6091 50.4198 56.6091H48.0181C47.9926 56.6091 47.9682 56.5995 47.9502 56.5826C47.9322 56.5656 47.9221 56.5425 47.922 56.5185V55.7933C47.9221 55.7692 47.9322 55.7462 47.9502 55.7292C47.9682 55.7122 47.9926 55.7026 48.0181 55.7026H50.4198Z" fill="#2CB1BC"/>
<path d="M44.8959 45.5951C44.9214 45.5951 44.9458 45.6046 44.9638 45.6216C44.9819 45.6386 44.992 45.6617 44.992 45.6857V46.4109C44.992 46.435 44.9819 46.458 44.9638 46.475C44.9458 46.492 44.9214 46.5015 44.8959 46.5016H42.4943C42.4688 46.5015 42.4444 46.492 42.4264 46.475C42.4084 46.458 42.3982 46.435 42.3982 46.4109V45.6857C42.3982 45.6617 42.4084 45.6386 42.4264 45.6216C42.4444 45.6046 42.4688 45.5951 42.4943 45.5951H44.8959Z" fill="#2CB1BC"/>
<path d="M33.2239 44.0993H35.7216V42.2863L34.761 41.9237L33.2239 43.0115V44.0993Z" fill="#3F3D56"/>
<path d="M35.4055 41.4646L35.666 41.5808L35.1731 42.5642L34.9126 42.4479L35.4055 41.4646Z" fill="#3F3D56"/>
<path d="M35.1294 40.288C35.1477 40.288 35.1657 40.293 35.1811 40.3024L36.8779 41.3322C36.8993 41.3452 36.9144 41.3657 36.9198 41.3892C36.9251 41.4127 36.9205 41.4372 36.9067 41.4574L36.491 42.0674C36.4772 42.0876 36.4555 42.1018 36.4306 42.1069C36.4057 42.112 36.3797 42.1076 36.3583 42.0946L34.6614 41.0648C34.64 41.0518 34.625 41.0313 34.6196 41.0078C34.6142 40.9843 34.6189 40.9598 34.6326 40.9396L35.0483 40.3296C35.0551 40.3196 35.064 40.3109 35.0743 40.3042C35.0847 40.2974 35.0964 40.2926 35.1087 40.2901C35.1155 40.2887 35.1224 40.288 35.1294 40.288Z" fill="#2CB1BC"/>
<path d="M31.3026 43.918L33.2719 34.8983L30.9664 34.5357L29.3943 41.8018C29.3267 42.0652 29.3262 42.34 29.3927 42.6036C29.4592 42.8673 29.5909 43.1123 29.7771 43.3187C29.9632 43.5251 30.1984 43.687 30.4636 43.7912C30.7287 43.8954 31.0162 43.9388 31.3026 43.918Z" fill="#3F3D56"/>
<path d="M24.0465 33.1211L26.3273 32.9674C26.3578 32.9653 26.3873 32.9564 26.4134 32.9414C26.4395 32.9264 26.4615 32.9058 26.4775 32.8812C26.4934 32.8566 26.5029 32.8288 26.5052 32.8C26.5075 32.7712 26.5024 32.7424 26.4905 32.7158L23.1776 25.3345C23.1651 25.3067 23.1455 25.2823 23.1205 25.2635C23.0955 25.2447 23.0659 25.232 23.0344 25.2267L20.7848 24.8476C20.7512 24.842 20.7166 24.8449 20.6845 24.856C20.6525 24.8672 20.6242 24.8862 20.6025 24.9111C20.5808 24.936 20.5666 24.9659 20.5612 24.9977C20.5559 25.0296 20.5596 25.0622 20.5721 25.0922L23.8539 33.0063C23.8689 33.0423 23.8956 33.0729 23.9303 33.0935C23.9649 33.1142 24.0057 33.1238 24.0465 33.1211Z" fill="#3F3D56"/>
<path d="M26.0189 32.4054L24.1937 32.5867L21.2156 25.5159L23.1369 25.7879L26.0189 32.4054Z" fill="#2CB1BC"/>
<path d="M45.9047 51.8046L48.3063 54.0709L51.7647 39.8387L49.8434 40.1107L45.9047 51.8046Z" fill="#3F3D56"/>
<path d="M48.7034 40.0891L49.1183 39.9717C49.9333 40.3108 50.8202 40.4682 51.7101 40.4319C51.9023 40.4244 52.0839 40.3468 52.2167 40.2154C52.3495 40.0841 52.4231 39.9093 52.422 39.7277C52.422 39.5408 52.3433 39.3615 52.2032 39.2293C52.0632 39.0971 51.8732 39.0229 51.6751 39.0229H48.0517C47.9536 39.0229 47.8595 39.0597 47.7902 39.1251C47.7208 39.1906 47.6819 39.2793 47.6819 39.3719C47.6819 39.4886 47.7108 39.6037 47.7663 39.708C47.8219 39.8124 47.9025 39.903 48.0017 39.9727C48.101 40.0423 48.2161 40.0892 48.338 40.1094C48.4598 40.1296 48.585 40.1227 48.7034 40.0891Z" fill="#3F3D56"/>
<path d="M25.753 31.1887C25.8458 31.1886 25.936 31.2173 26.0097 31.2704L28.9591 33.3987L32.2605 33.805C32.8289 33.875 33.2226 34.4584 33.2719 34.9889L29.3858 34.4797C28.8459 34.4306 28.3357 34.224 27.9261 33.8886L25.4762 31.8892C25.4109 31.836 25.3644 31.7652 25.343 31.6864C25.3216 31.6075 25.3262 31.5244 25.3564 31.4481C25.3865 31.3718 25.4407 31.3061 25.5116 31.2597C25.5825 31.2134 25.6667 31.1886 25.753 31.1887Z" fill="#3F3D56"/>
<path d="M27.194 29.829C27.2867 29.8288 27.377 29.8576 27.4507 29.9107L30.4001 32.0389L33.7015 32.4452C34.2699 32.5152 34.6636 33.0987 34.7129 33.6292L30.8267 33.1199C30.2869 33.0708 29.7767 32.8642 29.3671 32.5288L26.9172 30.5294C26.8519 30.4763 26.8054 30.4055 26.784 30.3266C26.7625 30.2478 26.7672 30.1646 26.7973 30.0884C26.8275 30.0121 26.8816 29.9463 26.9525 29.9C27.0234 29.8536 27.1077 29.8288 27.194 29.829Z" fill="#3F3D56"/>
<path d="M25.3945 35.3062C26.0813 35.3048 26.7581 35.1514 27.3707 34.8583C27.9832 34.5652 28.5143 34.1406 28.9213 33.6185L28.5341 33.3505C28.2234 33.7509 27.8299 34.0877 27.3775 34.3406C26.925 34.5935 26.4229 34.7572 25.9015 34.8219C25.3801 34.8865 24.8502 34.8507 24.3438 34.7167C23.8375 34.5827 23.3652 34.3532 22.9554 34.0421C22.5457 33.731 22.2071 33.3448 21.96 32.9067C21.7129 32.4686 21.5625 31.9879 21.5178 31.4934C21.4732 30.9989 21.5352 30.5011 21.7002 30.0299C21.8651 29.5587 22.1296 29.1239 22.4777 28.7519L22.1176 28.4518C21.5608 29.047 21.1978 29.7812 21.0723 30.5663C20.9468 31.3513 21.0641 32.1539 21.4101 32.8776C21.7561 33.6013 22.3161 34.2154 23.0228 34.6462C23.7296 35.077 24.5531 35.3062 25.3945 35.3062Z" fill="#3F3D56"/>
<path d="M22.0322 60.7337H56.0396V63H22.0322V60.7337Z" fill="#3F3D56"/>
<path d="M30.3662 34.1007C30.1964 34.0366 30.049 33.9288 29.9407 33.7897C29.8325 33.6505 29.7677 33.4856 29.7538 33.3135C29.7399 33.1414 29.7774 32.969 29.862 32.816C29.9466 32.663 30.0749 32.5354 30.2325 32.4477L32.2632 31.3176L33.7042 32.0428L31.3687 33.9427C31.2329 34.0531 31.0677 34.1262 30.8909 34.1541C30.7141 34.182 30.5326 34.1635 30.3662 34.1007Z" fill="#FFB9B9"/>
<path d="M46.2889 42.105L44.944 42.8302L36.6393 37.0621C36.3348 36.8657 36.0765 36.612 35.8808 36.317C35.6852 36.0219 35.5562 35.6919 35.5022 35.3476C35.4346 34.9123 35.4884 34.4679 35.6582 34.0581C35.8281 33.6484 36.108 33.2875 36.4706 33.0109C38.3046 31.6053 40.5713 30.3303 42.9746 29.0966L46.5291 30.7284C45.0642 33.5627 43.4382 35.8995 41.0533 35.8955L46.2889 42.105Z" fill="#2CB1BC"/>
<path d="M46.8752 43.9516C45.7593 45.0183 44.2899 45.7816 42.6487 46.3973C42.525 46.4435 42.3891 46.4525 42.2598 46.4228C42.1305 46.3932 42.0141 46.3264 41.9267 46.2318C41.8205 46.1169 41.764 45.9686 41.7684 45.8162C41.7729 45.6638 41.8379 45.5186 41.9506 45.4094L43.0145 44.3788L43.6573 42.2185C45.0376 42.8623 45.9427 42.7182 46.1211 41.3694L46.9912 42.4889C47.1593 42.7059 47.24 42.9724 47.2188 43.2404C47.1975 43.5085 47.0757 43.7606 46.8752 43.9516Z" fill="#2F2E41"/>
<path d="M50.6119 53.527L48.5945 53.6177L43.9833 31.2269L51.9088 28.8247C52.7001 31.6163 51.5252 36.1858 49.4591 41.5611L50.6119 53.527Z" fill="#2CB1BC"/>
<path d="M35.0972 16.5869C33.3464 16.5869 31.927 15.2475 31.927 13.5954C31.927 11.9432 33.3464 10.6039 35.0972 10.6039C36.8481 10.6039 38.2674 11.9432 38.2674 13.5954C38.2674 15.2475 36.8481 16.5869 35.0972 16.5869Z" fill="#FFB9B9"/>
<path d="M40.9092 17.2667L38.8918 18.6265L35.8177 15.7257L37.3548 13.9127L40.9092 17.2667Z" fill="#FFB9B9"/>
<path d="M52.245 29.0513C49.7571 30.9645 47.0402 32.222 43.6951 31.6802C42.6843 30.1553 41.938 26.9429 40.669 25.5613C37.898 22.5441 36.5236 19.8548 37.4028 17.4027C38.2574 16.8755 38.2198 16.8764 38.8438 15.1364C43.7313 15.9897 48.463 21.196 52.245 29.0513Z" fill="#E6E6E6"/>
<path d="M50.6442 55.3926C49.2082 56.0334 47.5505 56.2747 45.785 56.3217C45.652 56.3251 45.5211 56.2895 45.4104 56.2198C45.2998 56.1501 45.2147 56.0497 45.167 55.9325C45.109 55.7902 45.1099 55.6326 45.1694 55.4909C45.229 55.3492 45.3429 55.2339 45.4885 55.1678L46.8625 54.5441L48.2517 52.723C49.3141 53.7746 50.2167 53.9322 50.8747 52.723L51.2849 54.0563C51.3639 54.3146 51.3429 54.5909 51.2255 54.8359C51.108 55.0808 50.9019 55.2782 50.6442 55.3926Z" fill="#2F2E41"/>
<path d="M33.8964 32.6773L32.0711 31.4082L36.1059 24.7001L37.2731 18.7526C37.35 18.3608 37.5699 18.0067 37.8946 17.7518C38.2193 17.4969 38.6283 17.3574 39.0507 17.3574C39.3269 17.3574 39.5994 17.4171 39.8474 17.532C40.0953 17.6468 40.3121 17.8138 40.481 18.02C40.6499 18.2263 40.7665 18.4663 40.8218 18.7216C40.8772 18.977 40.8697 19.2409 40.8001 19.4932L38.9879 26.0598L33.8964 32.6773Z" fill="#E6E6E6"/>
<path d="M43.0707 46.4109H44.1274V51.85H43.0707V46.4109Z" fill="#3F3D56"/>
<path d="M32.588 12.7278C32.4638 12.8682 32.3047 12.9772 32.1247 13.045C31.9448 13.1129 31.7499 13.1374 31.5574 13.1164C31.1758 13.0602 30.8362 12.7531 30.8117 12.3893C30.7906 12.0753 30.9863 11.7872 31.1916 11.5392C31.6446 10.9923 32.1825 10.5131 32.7872 10.1178C33.0756 9.92944 33.3937 9.75603 33.7438 9.73573C33.917 9.72568 34.0905 9.75385 34.2639 9.74682C34.5827 9.73389 34.8814 9.60373 35.1924 9.53631C35.5117 9.46919 35.8425 9.46757 36.1626 9.53156C36.4826 9.59555 36.7843 9.72365 37.0473 9.9072C37.2227 10.0337 37.3813 10.1796 37.5198 10.3418C37.9027 10.7837 38.1595 11.3107 38.2658 11.8727C38.433 12.7635 38.2243 13.7405 38.6779 14.5375C38.1457 14.4906 37.7189 14.1076 37.2132 13.9439C36.838 13.8237 36.4307 13.8271 36.0578 13.9536C35.9617 14.0001 35.8534 14.0192 35.7461 14.0086C35.6574 13.9791 35.5798 13.9256 35.5231 13.8548L34.5562 12.862C34.3594 12.6599 34.1358 12.4446 33.8465 12.4167C33.6738 12.411 33.502 12.4432 33.3447 12.5106C32.957 12.6489 32.582 12.8171 32.2234 13.0134" fill="#2F2E41"/>
<path d="M34.4247 33.4479L34.7129 33.6292L32.7916 35.4422L31.6388 34.445L33.5601 32.9946L34.4247 33.4479Z" fill="#3F3D56"/>
<path d="M54.4392 4H78.231V27.2292H54.4392V4Z" fill="#E6E6E6"/>
<path d="M55.7092 5.2401H76.961V25.9891H55.7092V5.2401Z" fill="white"/>
<path d="M72.8263 26.3517H72.0694L72.0742 26.0642L72.0871 25.4264L72.2071 18.8681L72.2087 18.8374L72.2703 15.4864L72.4211 7.34048H72.4551L72.6156 15.5461L72.6788 18.839L72.6804 18.8696L72.8263 26.3517Z" fill="#E6E6E6"/>
<path d="M70.2295 25.148L70.511 24.6435L72.5311 25.647L72.2495 26.1516L70.2295 25.148Z" fill="#E6E6E6"/>
<path d="M65.8384 4.62096H66.7991V26.5584H65.8384V4.62096Z" fill="#E6E6E6"/>
<path d="M54.4392 15.1364H78.231V16.043H54.4392V15.1364Z" fill="#E6E6E6"/>
</g>
<path d="M90.0505 25.0986L92.1526 25.071L97.2535 37.0791L97.424 37.0769L102.209 24.9393L104.311 24.9117L104.501 39.4559L102.854 39.4775L102.709 28.4273L102.567 28.4292L98.1665 39.5389L96.5757 39.5598L91.8859 28.5691L91.7439 28.571L91.8886 39.6212L90.2411 39.6428L90.0505 25.0986ZM108.938 43.4891C108.654 43.4928 108.401 43.4724 108.177 43.428C107.954 43.3883 107.8 43.3477 107.714 43.3062L108.121 41.8235C108.529 41.9223 108.89 41.9555 109.202 41.923C109.514 41.8905 109.789 41.7472 110.027 41.4931C110.27 41.2437 110.49 40.8407 110.686 40.2841L110.988 39.4278L106.81 28.5157L108.628 28.4918L111.753 37.1448L111.867 37.1433L114.764 28.4115L116.582 28.3876L112.115 40.9472C111.915 41.5134 111.663 41.9831 111.36 42.3564C111.057 42.7345 110.703 43.0161 110.298 43.2013C109.898 43.3865 109.445 43.4824 108.938 43.4891ZM119.164 39.2638L118.974 24.7196L127.695 24.6054L127.715 26.1678L120.756 26.2589L120.82 31.1733L127.126 31.0907L127.147 32.653L120.84 32.7356L120.926 39.2408L119.164 39.2638ZM130.674 39.1131L130.531 28.2049L132.207 28.1829L132.35 39.0911L130.674 39.1131ZM131.36 26.3757C131.033 26.38 130.75 26.2724 130.51 26.053C130.275 25.8335 130.156 25.5675 130.152 25.2551C130.148 24.9426 130.26 24.6736 130.489 24.448C130.723 24.2224 131.003 24.1075 131.33 24.1032C131.657 24.0989 131.938 24.2065 132.172 24.426C132.412 24.6454 132.534 24.9113 132.538 25.2238C132.542 25.5363 132.427 25.8053 132.193 26.031C131.964 26.2565 131.687 26.3714 131.36 26.3757ZM140.021 28.0806L140.04 29.5009L134.387 29.575L134.368 28.1546L140.021 28.0806ZM135.981 25.5196L137.657 25.4977L137.794 35.8945C137.8 36.368 137.873 36.7221 138.014 36.9571C138.159 37.1872 138.341 37.3411 138.559 37.4187C138.783 37.4915 139.018 37.5263 139.264 37.5231C139.449 37.5207 139.6 37.5093 139.718 37.4888C139.836 37.4635 139.931 37.4434 140.001 37.4282L140.362 38.9293C140.249 38.9734 140.091 39.0181 139.888 39.0634C139.685 39.1134 139.427 39.1404 139.115 39.1445C138.641 39.1507 138.176 39.055 137.719 38.8574C137.266 38.6597 136.888 38.3545 136.585 37.9418C136.286 37.529 136.132 37.0054 136.124 36.371L135.981 25.5196ZM143.147 38.9497L142.956 24.4055L148.041 24.3388C149.054 24.3256 149.892 24.4898 150.555 24.8315C151.217 25.1685 151.713 25.6284 152.043 26.2113C152.373 26.7894 152.542 27.4335 152.551 28.1437C152.56 28.7687 152.455 29.2862 152.238 29.6962C152.025 30.1063 151.741 30.432 151.384 30.6734C151.032 30.9148 150.649 31.095 150.233 31.2141L150.235 31.3561C150.681 31.3787 151.13 31.5291 151.584 31.8073C152.037 32.0854 152.419 32.4877 152.729 33.014C153.039 33.5403 153.199 34.1869 153.209 34.9539C153.218 35.683 153.061 36.3409 152.737 36.9275C152.414 37.5142 151.897 37.9827 151.186 38.3329C150.476 38.6832 149.548 38.8658 148.402 38.8808L143.147 38.9497ZM144.887 37.3642L148.381 37.3184C149.532 37.3034 150.346 37.0702 150.823 36.6188C151.305 36.1626 151.541 35.615 151.533 34.9758C151.526 34.4834 151.395 34.0306 151.139 33.6172C150.882 33.1992 150.52 32.8677 150.053 32.6228C149.586 32.3733 149.035 32.2526 148.4 32.2609L144.821 32.3078L144.887 37.3642ZM144.801 30.7739L148.068 30.7311C148.598 30.7241 149.075 30.6137 149.498 30.3998C149.926 30.1859 150.263 29.8878 150.509 29.5058C150.76 29.1237 150.882 28.677 150.875 28.1657C150.867 27.5265 150.637 26.9873 150.187 26.5481C149.736 26.1042 149.027 25.8885 148.061 25.9012L144.738 25.9447L144.801 30.7739ZM159.139 38.9958C158.448 39.0049 157.819 38.8829 157.252 38.6299C156.685 38.3722 156.233 37.9969 155.895 37.5041C155.557 37.0066 155.384 36.4028 155.374 35.6926C155.366 35.0677 155.483 34.5595 155.724 34.168C155.965 33.7718 156.29 33.4598 156.699 33.2319C157.108 33.004 157.56 32.8323 158.056 32.7169C158.556 32.5967 159.059 32.5001 159.565 32.4272C160.226 32.3333 160.763 32.2624 161.174 32.2143C161.59 32.1615 161.892 32.0795 162.08 31.9681C162.273 31.8566 162.368 31.666 162.364 31.3961L162.363 31.3393C162.354 30.6386 162.155 30.0967 161.767 29.7135C161.383 29.3302 160.805 29.1436 160.033 29.1537C159.233 29.1642 158.608 29.3476 158.158 29.7039C157.708 30.0602 157.394 30.4384 157.214 30.8385L155.616 30.2913C155.891 29.6247 156.263 29.1037 156.732 28.7282C157.205 28.3479 157.723 28.0807 158.284 27.9266C158.85 27.7676 159.408 27.6845 159.957 27.6773C160.307 27.6728 160.71 27.7101 161.166 27.7894C161.626 27.8638 162.071 28.0261 162.501 28.2762C162.935 28.5262 163.297 28.9074 163.588 29.4197C163.879 29.932 164.03 30.6214 164.041 31.4878L164.136 38.6747L162.46 38.6966L162.44 37.2195L162.355 37.2206C162.245 37.4588 162.058 37.7146 161.797 37.9879C161.535 38.2613 161.186 38.4955 160.748 38.6907C160.31 38.8858 159.774 38.9875 159.139 38.9958ZM159.375 37.4869C160.038 37.4783 160.595 37.3407 161.046 37.0744C161.502 36.808 161.843 36.4673 162.07 36.0524C162.301 35.6374 162.414 35.2026 162.408 34.7481L162.388 33.2142C162.318 33.3003 162.163 33.3805 161.922 33.4547C161.686 33.524 161.413 33.5868 161.101 33.643C160.794 33.6944 160.494 33.7409 160.2 33.7826C159.912 33.8196 159.678 33.851 159.499 33.8771C159.064 33.9396 158.658 34.0372 158.281 34.17C157.908 34.298 157.608 34.489 157.379 34.743C157.155 34.9921 157.046 35.3298 157.051 35.7559C157.059 36.3382 157.28 36.7757 157.715 37.0683C158.154 37.3561 158.708 37.4957 159.375 37.4869ZM174.81 30.0682L173.31 30.514C173.212 30.2643 173.07 30.0223 172.882 29.788C172.699 29.5489 172.45 29.3533 172.135 29.2012C171.821 29.049 171.42 28.9762 170.932 28.9825C170.265 28.9913 169.71 29.1525 169.269 29.466C168.833 29.7748 168.618 30.1635 168.624 30.6322C168.63 31.0489 168.785 31.3759 169.092 31.6134C169.398 31.8509 169.874 32.0459 170.52 32.1985L172.144 32.5749C173.123 32.7989 173.854 33.1515 174.339 33.6329C174.823 34.1096 175.07 34.729 175.08 35.4913C175.089 36.1162 174.916 36.6772 174.563 37.1743C174.214 37.6714 173.722 38.0661 173.086 38.3585C172.451 38.651 171.71 38.8028 170.862 38.8139C169.75 38.8284 168.826 38.599 168.09 38.1257C167.355 37.6523 166.884 36.9529 166.678 36.0275L168.263 35.609C168.422 36.1941 168.714 36.6306 169.14 36.9186C169.57 37.2066 170.128 37.3461 170.814 37.3371C171.596 37.3268 172.214 37.153 172.668 36.8156C173.128 36.4734 173.355 36.0679 173.349 35.5992C173.344 35.2204 173.207 34.905 172.938 34.6528C172.67 34.3959 172.26 34.2071 171.709 34.0864L169.886 33.6842C168.884 33.4605 168.145 33.1032 167.67 32.6122C167.199 32.1165 166.959 31.4922 166.949 30.7394C166.941 30.1239 167.107 29.5772 167.446 29.0992C167.79 28.6212 168.261 28.2433 168.859 27.9656C169.462 27.6878 170.146 27.5439 170.913 27.5338C171.993 27.5197 172.843 27.7453 173.465 28.2107C174.091 28.676 174.54 29.2952 174.81 30.0682ZM182.219 38.6651C181.168 38.6788 180.259 38.4587 179.49 38.0047C178.727 37.546 178.133 36.9003 177.711 36.0677C177.292 35.2303 177.076 34.2529 177.061 33.1356C177.047 32.0182 177.237 31.0308 177.633 30.1733C178.034 29.3109 178.598 28.6359 179.326 28.1481C180.058 27.6555 180.917 27.4028 181.901 27.3899C182.469 27.3824 183.032 27.4698 183.588 27.6519C184.144 27.834 184.653 28.1351 185.113 28.5553C185.573 28.9707 185.942 29.5246 186.221 30.217C186.5 30.9095 186.646 31.7646 186.66 32.7825L186.669 33.4927L178.261 33.6029L178.242 32.1541L184.946 32.0663C184.938 31.4508 184.807 30.9032 184.555 30.4235C184.307 29.9438 183.956 29.5672 183.503 29.2938C183.054 29.0203 182.527 28.8875 181.921 28.8954C181.253 28.9042 180.678 29.0774 180.195 29.4152C179.716 29.7482 179.35 30.1792 179.096 30.7081C178.843 31.2371 178.72 31.8022 178.728 32.4034L178.741 33.3693C178.751 34.1931 178.903 34.8895 179.194 35.4587C179.49 36.023 179.896 36.451 180.411 36.7426C180.927 37.0294 181.523 37.1684 182.2 37.1595C182.64 37.1537 183.037 37.087 183.39 36.9592C183.749 36.8267 184.056 36.6333 184.313 36.3789C184.57 36.1198 184.767 35.8 184.904 35.4194L186.53 35.8527C186.366 36.4041 186.086 36.8908 185.689 37.3127C185.292 37.7298 184.799 38.0583 184.211 38.298C183.622 38.533 182.958 38.6554 182.219 38.6651Z" fill="#2CB1BC"/>
</g>
<defs>
<filter id="filter0_d_1_3" x="-4" y="0" width="203" height="75" filterUnits="userSpaceOnUse" color-interpolation-filters="sRGB">
<feFlood flood-opacity="0" result="BackgroundImageFix"/>
<feColorMatrix in="SourceAlpha" type="matrix" values="0 0 0 0 0 0 0 0 0 0 0 0 0 0 0 0 0 0 127 0" result="hardAlpha"/>
<feOffset dy="4"/>
<feGaussianBlur stdDeviation="2"/>
<feComposite in2="hardAlpha" operator="out"/>
<feColorMatrix type="matrix" values="0 0 0 0 0 0 0 0 0 0 0 0 0 0 0 0 0 0 0.25 0"/>
<feBlend mode="normal" in2="BackgroundImageFix" result="effect1_dropShadow_1_3"/>
<feBlend mode="normal" in="SourceGraphic" in2="effect1_dropShadow_1_3" result="shape"/>
</filter>
<clipPath id="clip0_1_3">
<rect width="74" height="59" fill="white" transform="matrix(-1 0 0 1 78.231 4)"/>
</clipPath>
</defs>
</svg>
