<?xml version="1.0" encoding="utf-8"?>
<svg viewBox="154.3304 85.4805 180.1917 44.3473" width="180.192" height="44.347" xmlns="http://www.w3.org/2000/svg" xmlns:bx="https://boxy-svg.com">
  <path d="M 224.828 97.786 L 226.83 115.34 L 223.485 115.34 L 222.044 102.278 L 221.971 102.278 L 218.199 115.401 L 214.439 115.401 L 210.668 102.278 L 210.594 102.278 L 209.154 115.34 L 205.809 115.34 L 207.811 97.786 L 212.279 97.786 L 216.319 111.861 L 220.36 97.786 Z" style="fill: rgb(44, 177, 188); stroke-width: 0px;"/>
  <path d="M 241.287 102.645 L 241.287 115.242 Q 241.287 116.671 240.83 117.665 Q 240.372 118.66 239.536 119.283 Q 238.7 119.905 237.534 120.186 Q 236.368 120.467 234.964 120.467 Q 233.878 120.467 232.761 120.278 Q 231.644 120.089 230.692 119.71 Q 230.948 119.1 231.217 118.514 Q 231.485 117.928 231.766 117.342 Q 232.645 117.623 233.548 117.824 Q 234.452 118.026 235.294 118.026 Q 235.538 118.026 235.825 118.007 Q 236.112 117.989 236.405 117.916 Q 236.698 117.842 236.978 117.69 Q 237.259 117.537 237.473 117.275 Q 237.686 117.012 237.821 116.616 Q 237.955 116.219 237.967 115.657 L 237.967 113.179 L 237.857 113.179 Q 237.454 113.79 237.021 114.247 Q 236.588 114.705 236.087 115.017 Q 235.587 115.328 234.989 115.48 Q 234.391 115.633 233.658 115.633 Q 232.462 115.633 231.681 115.255 Q 230.899 114.876 230.423 114.168 Q 229.959 113.436 229.764 112.41 Q 229.569 111.385 229.569 110.079 L 229.569 102.645 L 232.913 102.645 L 232.913 111.043 Q 232.913 112.093 233.402 112.642 Q 233.89 113.192 234.745 113.192 Q 235.208 113.192 235.654 112.972 Q 236.1 112.752 236.515 112.398 Q 236.93 112.044 237.284 111.586 Q 237.638 111.129 237.918 110.665 L 237.918 102.645 Z" style="fill: rgb(44, 177, 188); stroke-width: 0px;"/>
  <path d="M 256.125 97.786 L 256.125 100.289 L 249.033 100.289 L 249.033 104.268 L 254.05 104.268 L 254.05 106.771 L 249.033 106.771 L 249.033 115.34 L 245.627 115.34 L 245.627 97.786 Z" style="fill: rgb(44, 177, 188); stroke-width: 0px;"/>
  <path d="M 260.988 96.456 C 261.2646666666667 96.456 261.527 96.50866666666667 261.775 96.614 C 262.02366666666666 96.72 262.2393333333334 96.86466666666666 262.422 97.048 C 262.60533333333336 97.23066666666666 262.75 97.44633333333333 262.856 97.695 C 262.96133333333336 97.943 263.014 98.20533333333333 263.014 98.482 C 263.014 98.76666666666667 262.96133333333336 99.03133333333334 262.856 99.276 C 262.75 99.52 262.60533333333336 99.73566666666666 262.422 99.923 C 262.2393333333334 100.10966666666667 262.02366666666666 100.256 261.775 100.362 C 261.527 100.468 261.2646666666667 100.521 260.988 100.521 C 260.7033333333333 100.521 260.43899999999996 100.468 260.195 100.362 C 259.95033333333333 100.256 259.73466666666667 100.10966666666667 259.548 99.923 C 259.36066666666665 99.73566666666666 259.214 99.52 259.108 99.276 C 259.00266666666664 99.03133333333334 258.95 98.76666666666667 258.95 98.482 C 258.95 98.20533333333333 259.00266666666664 97.943 259.108 97.695 C 259.214 97.44633333333333 259.36066666666665 97.23066666666666 259.548 97.048 C 259.73466666666667 96.86466666666666 259.95033333333333 96.72 260.195 96.614 C 260.43899999999996 96.50866666666667 260.7033333333333 96.456 260.988 96.456 Z" style="fill: rgb(44, 177, 188); stroke-width: 0px;"/>
  <path d="M 262.648 102.645 L 262.648 115.34 L 259.304 115.34 L 259.304 102.645 L 262.648 102.645 Z" style="fill: rgb(44, 177, 188); stroke-width: 0px;"/>
  <path d="M 271.342 99.739 L 271.342 102.645 L 275.615 102.645 L 275.615 105.086 L 271.342 105.086 L 271.342 111.177 Q 271.342 111.776 271.397 112.166 Q 271.452 112.557 271.599 112.783 Q 271.745 113.008 272.001 113.1 Q 272.258 113.192 272.661 113.192 Q 273.051 113.192 273.57 113.106 Q 274.089 113.021 274.797 112.862 Q 274.87 113.082 274.962 113.375 Q 275.053 113.668 275.145 113.979 Q 275.236 114.29 275.322 114.577 Q 275.407 114.864 275.48 115.084 Q 275.139 115.206 274.681 115.309 Q 274.223 115.413 273.723 115.486 Q 273.222 115.56 272.709 115.596 Q 272.197 115.633 271.745 115.633 Q 271.318 115.633 270.903 115.596 Q 270.488 115.56 270.115 115.468 Q 269.743 115.377 269.426 115.23 Q 269.108 115.084 268.876 114.852 Q 268.339 114.327 268.168 113.405 Q 267.997 112.484 267.997 111.055 L 267.997 105.086 L 266.166 105.086 L 266.166 102.645 L 267.997 102.645 L 267.997 99.739 Z" style="fill: rgb(44, 177, 188); stroke-width: 0px;"/>
  <path d="M 285.372 97.786 C 286.13733333333334 97.786 286.8616666666667 97.86133333333333 287.545 98.012 C 288.22900000000004 98.16266666666667 288.82533333333333 98.40066666666667 289.334 98.726 C 289.8426666666667 99.052 290.2453333333333 99.47133333333333 290.542 99.984 C 290.83933333333334 100.49666666666667 290.988 101.115 290.988 101.839 C 290.988 102.34366666666666 290.937 102.79533333333333 290.835 103.194 C 290.73366666666664 103.59266666666667 290.58733333333333 103.94866666666667 290.396 104.262 C 290.20466666666664 104.57533333333333 289.9746666666667 104.85 289.706 105.086 C 289.43733333333336 105.322 289.132 105.52533333333334 288.79 105.696 L 288.79 105.819 C 289.17266666666666 105.90833333333333 289.5493333333333 106.06700000000001 289.92 106.295 C 290.29 106.52233333333334 290.6213333333333 106.815 290.914 107.173 C 291.20733333333334 107.53166666666667 291.4456666666667 107.949 291.629 108.425 C 291.81166666666667 108.901 291.903 109.428 291.903 110.006 C 291.903 110.982 291.7443333333334 111.81 291.427 112.49 C 291.10966666666667 113.16933333333333 290.67233333333337 113.71866666666666 290.115 114.138 C 289.55766666666665 114.55666666666667 288.8963333333333 114.86166666666666 288.131 115.053 C 287.36633333333333 115.24433333333333 286.53633333333335 115.34 285.641 115.34 L 278.829 115.34 L 278.829 97.786 L 285.372 97.786 Z" style="fill: rgb(44, 177, 188); stroke-width: 0px;"/>
  <path d="M 284.664 112.96 C 285.95 112.96 286.9206666666667 112.732 287.576 112.276 C 288.23133333333334 111.82 288.559 111.06333333333333 288.559 110.006 C 288.559 108.948 288.23133333333334 108.191 287.576 107.735 C 286.9206666666667 107.279 285.95 107.051 284.664 107.051 L 282.174 107.051 L 282.174 112.96 L 284.664 112.96 Z" style="fill: rgb(44, 177, 188); stroke-width: 0px;"/>
  <path d="M 284.225 104.671 C 284.83566666666667 104.671 285.3566666666667 104.63033333333334 285.788 104.549 C 286.2186666666667 104.46766666666667 286.57033333333334 104.33733333333333 286.843 104.158 C 287.1156666666667 103.97933333333333 287.31733333333335 103.74766666666666 287.448 103.463 C 287.578 103.17766666666667 287.643 102.83166666666666 287.643 102.425 C 287.643 102.00966666666667 287.578 101.65966666666667 287.448 101.375 C 287.31733333333335 101.09033333333333 287.1156666666667 100.85833333333333 286.843 100.679 C 286.57033333333334 100.50033333333333 286.2186666666667 100.37033333333333 285.788 100.289 C 285.3566666666667 100.20766666666667 284.83566666666667 100.167 284.225 100.167 L 282.174 100.167 L 282.174 104.671 L 284.225 104.671 Z" style="fill: rgb(44, 177, 188); stroke-width: 0px;"/>
  <path d="M 295.317 103.267 C 295.61833333333334 103.145 295.96233333333333 103.031 296.349 102.925 C 296.735 102.81966666666666 297.146 102.72433333333333 297.582 102.639 C 298.01733333333334 102.553 298.469 102.48566666666667 298.937 102.437 C 299.40433333333334 102.38833333333334 299.87833333333333 102.364 300.359 102.364 C 301.03433333333334 102.364 301.66700000000003 102.417 302.257 102.523 C 302.847 102.62833333333333 303.33733333333333 102.80333333333333 303.728 103.048 C 304.1186666666667 103.292 304.4236666666667 103.62333333333333 304.643 104.042 C 304.863 104.46133333333334 304.973 104.98833333333334 304.973 105.623 L 304.973 110.579 C 304.973 111.149 304.97700000000003 111.65566666666666 304.985 112.099 C 304.993 112.54233333333333 305.00933333333336 112.97566666666667 305.034 113.399 C 305.05 113.55366666666667 305.0663333333333 113.694 305.083 113.82 C 305.09900000000005 113.946 305.11733333333336 114.068 305.138 114.186 C 305.158 114.304 305.18233333333336 114.42833333333333 305.211 114.559 C 305.23966666666666 114.68900000000001 305.27433333333335 114.83133333333333 305.315 114.986 C 304.81033333333335 115.1 304.30766666666665 115.21 303.807 115.316 C 303.3063333333333 115.42133333333334 302.79966666666667 115.523 302.287 115.621 C 302.1976666666667 115.393 302.12666666666667 115.15899999999999 302.074 114.919 C 302.02066666666667 114.679 301.9736666666667 114.40433333333333 301.933 114.095 L 301.75 114.095 C 301.4653333333333 114.38766666666668 301.18066666666664 114.63166666666667 300.896 114.827 C 300.61133333333333 115.02233333333334 300.3143333333333 115.181 300.005 115.303 C 299.6956666666667 115.425 299.374 115.51066666666667 299.04 115.56 C 298.7066666666667 115.60866666666666 298.3566666666667 115.633 297.99 115.633 C 297.4286666666667 115.633 296.908 115.566 296.428 115.432 C 295.94800000000004 115.29733333333334 295.531 115.09166666666667 295.177 114.815 C 294.82300000000004 114.53833333333334 294.54633333333334 114.18633333333334 294.347 113.759 C 294.1476666666667 113.33166666666666 294.048 112.82933333333332 294.048 112.252 C 294.048 111.76333333333334 294.09866666666665 111.32766666666667 294.2 110.945 C 294.302 110.563 294.44666666666666 110.22133333333333 294.634 109.92 C 294.8206666666667 109.61866666666667 295.0443333333333 109.35433333333333 295.305 109.127 C 295.5656666666667 108.899 295.8546666666667 108.69933333333333 296.172 108.528 C 296.8066666666667 108.18666666666667 297.5146666666667 107.953 298.296 107.827 C 299.07733333333334 107.70033333333333 299.87466666666666 107.637 300.688 107.637 L 301.738 107.637 L 301.738 106.05 C 301.738 105.74933333333334 301.6913333333333 105.51133333333334 301.598 105.336 C 301.504 105.16133333333333 301.37766666666664 105.02933333333333 301.219 104.94 C 301.06033333333335 104.85000000000001 300.87533333333334 104.79100000000001 300.664 104.763 C 300.452 104.73433333333334 300.224 104.72 299.98 104.72 C 299.3206666666667 104.72 298.6553333333333 104.80333333333333 297.984 104.97 C 297.31266666666664 105.13666666666667 296.67199999999997 105.34233333333333 296.062 105.587 L 295.317 103.267 Z" style="fill: rgb(44, 177, 188); stroke-width: 0px;"/>
  <path d="M 301.738 109.432 L 301.494 109.432 C 300.916 109.44 300.36466666666666 109.48266666666667 299.84 109.56 C 299.31466666666665 109.63733333333333 298.85266666666666 109.76966666666667 298.454 109.957 C 298.05533333333335 110.14366666666666 297.736 110.38966666666666 297.496 110.695 C 297.25600000000003 111.00033333333333 297.136 111.385 297.136 111.849 C 297.136 112.36166666666666 297.2846666666667 112.75633333333333 297.582 113.033 C 297.8786666666667 113.30966666666666 298.29566666666665 113.448 298.833 113.448 C 299.08500000000004 113.448 299.3453333333333 113.41333333333333 299.614 113.344 C 299.88266666666664 113.27466666666666 300.147 113.17699999999999 300.407 113.051 C 300.66766666666666 112.925 300.912 112.76833333333333 301.14 112.581 C 301.368 112.39366666666666 301.56733333333335 112.178 301.738 111.934 L 301.738 109.432 Z" style="fill: rgb(44, 177, 188); stroke-width: 0px;"/>
  <path d="M 313.5 102.376 Q 314.672 102.376 315.795 102.584 Q 316.918 102.791 317.761 103.133 Q 317.59 103.621 317.364 104.122 Q 317.138 104.622 316.906 105.074 Q 316.284 104.866 315.46 104.72 Q 314.636 104.573 313.83 104.573 Q 313.366 104.573 312.945 104.641 Q 312.524 104.708 312.213 104.854 Q 311.901 105.001 311.718 105.239 Q 311.535 105.477 311.535 105.819 Q 311.535 106.295 311.773 106.569 Q 312.011 106.844 312.408 107.015 Q 312.805 107.186 313.329 107.296 Q 313.854 107.405 314.428 107.54 Q 315.319 107.747 316.094 108.065 Q 316.87 108.382 317.437 108.876 Q 318.005 109.371 318.316 110.085 Q 318.627 110.799 318.615 111.8 Q 318.591 112.874 318.109 113.607 Q 317.626 114.339 316.839 114.791 Q 316.052 115.242 315.045 115.438 Q 314.038 115.633 312.988 115.633 Q 312.292 115.633 311.596 115.56 Q 310.9 115.486 310.266 115.346 Q 309.631 115.206 309.081 115.017 Q 308.532 114.827 308.117 114.595 Q 308.325 114.119 308.581 113.607 Q 308.837 113.094 309.081 112.654 Q 309.423 112.801 309.869 112.941 Q 310.314 113.082 310.809 113.185 Q 311.303 113.289 311.822 113.356 Q 312.341 113.423 312.841 113.423 Q 313.354 113.423 313.818 113.338 Q 314.282 113.253 314.63 113.063 Q 314.977 112.874 315.179 112.563 Q 315.38 112.252 315.38 111.8 Q 315.38 111.287 315.142 110.982 Q 314.904 110.677 314.501 110.494 Q 314.099 110.311 313.574 110.201 Q 313.049 110.091 312.487 109.981 Q 311.633 109.81 310.864 109.493 Q 310.095 109.175 309.521 108.675 Q 308.947 108.174 308.611 107.46 Q 308.276 106.746 308.3 105.782 Q 308.312 104.83 308.764 104.177 Q 309.216 103.524 309.936 103.127 Q 310.656 102.73 311.584 102.553 Q 312.512 102.376 313.5 102.376 Z" style="fill: rgb(44, 177, 188); stroke-width: 0px;"/>
  <path d="M 332.394 114.766 C 332.0606666666667 114.90466666666667 331.69666666666666 115.02666666666667 331.302 115.132 C 330.9073333333333 115.238 330.4943333333333 115.32766666666666 330.063 115.401 C 329.63166666666666 115.47433333333333 329.1943333333333 115.53133333333334 328.751 115.572 C 328.30699999999996 115.61266666666667 327.8736666666667 115.633 327.451 115.633 C 325.31033333333335 115.633 323.6926666666667 115.11833333333333 322.598 114.089 C 321.50333333333333 113.05966666666667 320.956 111.483 320.956 109.359 C 320.956 108.41499999999999 321.06600000000003 107.51966666666667 321.286 106.673 C 321.506 105.82633333333334 321.86199999999997 105.08366666666667 322.354 104.445 C 322.8466666666667 103.80633333333333 323.4936666666667 103.29966666666667 324.295 102.925 C 325.09633333333335 102.551 326.079 102.364 327.243 102.364 C 329.2776666666667 102.364 330.79533333333336 102.903 331.796 103.981 C 332.7973333333333 105.05966666666667 333.298 106.70566666666667 333.298 108.919 L 333.298 109.883 L 324.277 109.883 C 324.293 110.437 324.358 110.92533333333333 324.472 111.348 C 324.58599999999996 111.77133333333333 324.7753333333333 112.12733333333334 325.04 112.416 C 325.304 112.70533333333333 325.65166666666664 112.92533333333333 326.083 113.076 C 326.51433333333335 113.226 327.0556666666667 113.301 327.707 113.301 C 328.2763333333333 113.301 328.8906666666667 113.23 329.55 113.088 C 330.20933333333335 112.94533333333332 330.897 112.73966666666666 331.613 112.471 L 332.394 114.766 Z" style="fill: rgb(44, 177, 188); stroke-width: 0px;"/>
  <path d="M 329.953 107.711 C 329.8963333333333 105.70033333333333 328.993 104.695 327.243 104.695 C 326.33966666666663 104.695 325.654 104.95566666666666 325.186 105.477 C 324.71799999999996 105.99766666666666 324.4313333333333 106.74233333333333 324.326 107.711 L 329.953 107.711 Z" style="fill: rgb(44, 177, 188); stroke-width: 0px;"/>
  <path d="M 180.328 187.354 Q 180.328 186.961 180.686 186.734 Q 181.068 186.492 181.567 186.638 Q 182.123 186.801 182.475 187.354 Q 182.87 187.975 182.807 188.785 Q 182.736 189.691 182.117 190.453 Q 181.431 191.296 180.328 191.648 Q 179.118 192.033 177.823 191.692 Q 176.417 191.322 175.37 190.216 Q 174.242 189.025 173.888 187.354 Q 173.508 185.565 174.131 183.776 Q 174.794 181.871 176.392 180.537 Q 178.086 179.124 180.328 178.767 Q 182.693 178.391 184.979 179.298 Q 187.382 180.251 189.004 182.345 Q 190.703 184.538 191.062 187.354 Q 191.436 190.295 190.243 193.079 Q 189.001 195.979 186.41 197.889 Q 183.718 199.875 180.328 200.235 Q 176.812 200.608 173.53 199.129 Q 170.132 197.597 167.934 194.51 Q 165.661 191.319 165.301 187.354 Q 164.929 183.262 166.694 179.483 Q 168.514 175.587 172.099 173.101 Q 175.789 170.541 180.328 170.18 Q 184.995 169.809 189.273 171.861 Q 193.666 173.969 196.441 178.051 Q 199.287 182.24 199.649 187.354 Q 200.02 192.596 197.68 197.372 Q 195.284 202.263 190.704 205.326 Q 186.017 208.459 180.328 208.822 Q 174.511 209.192 169.236 206.565 Q 163.847 203.881 160.497 198.803 Q 157.076 193.618 156.714 187.354 Q 156.344 180.962 159.258 175.189 Q 162.23 169.302 167.805 165.664 Q 173.489 161.956 180.328 161.593 Q 180.332 161.593 180.328 161.593" style="stroke: rgb(0, 0, 0); fill: rgb(44, 177, 188);" transform="matrix(1.0680359601974487, 0, 0, 0.9380760788917543, -13.001228332519528, -66.10606384277344)" bx:shape="spiral 180.328 187.354 0 25.761 0 1080 1@62385ff9"/>
</svg>